inDegrees=no
num_controls=7
num_derivatives=13
num_iterations=144
num_multipliers=7
num_parameters=0
num_slacks=7
num_states=26
objective=5.539564
objective_accelerations=0.354393
objective_balance=0.009762
objective_effort=0.391974
objective_height=4.670600
objective_ligament=0.112835
solver_duration=1222.156255
status=Solve_Succeeded
success=true
DataType=double
version=3
OpenSimVersion=4.4-2022-07-23-0e9fedc
endheader
time	/jointset/ground_pelvis/pelvis_tilt/value	/jointset/ground_pelvis/pelvis_tx/value	/jointset/ground_pelvis/pelvis_ty/value	/jointset/hip_r/hip_flexion_r/value	/jointset/hip_r/hip_adduction_r/value	/jointset/hip_r/hip_rotation_r/value	/jointset/back/lumbar_extension/value	/jointset/patellofemoral_r/patellar_flexion_r/value	/jointset/knee_r/knee_flexion_r/value	/jointset/knee_r/knee_adduction_r/value	/jointset/knee_r/knee_rotation_r/value	/jointset/ankle_r/ankle_angle_r/value	/jointset/subtalar_r/subtalar_angle_r/value	/jointset/ground_pelvis/pelvis_tilt/speed	/jointset/ground_pelvis/pelvis_tx/speed	/jointset/ground_pelvis/pelvis_ty/speed	/jointset/hip_r/hip_flexion_r/speed	/jointset/hip_r/hip_adduction_r/speed	/jointset/hip_r/hip_rotation_r/speed	/jointset/back/lumbar_extension/speed	/jointset/patellofemoral_r/patellar_flexion_r/speed	/jointset/knee_r/knee_flexion_r/speed	/jointset/knee_r/knee_adduction_r/speed	/jointset/knee_r/knee_rotation_r/speed	/jointset/ankle_r/ankle_angle_r/speed	/jointset/subtalar_r/subtalar_angle_r/speed	/forceset/tau_hip_flexion_r	/forceset/tau_hip_adduction_r	/forceset/tau_hip_rotation_r	/forceset/tau_knee_flexion_r	/forceset/tau_ankle_angle_r	/forceset/tau_subtalar_angle_r	/forceset/tau_lumbar_extension	lambda_cid13_p0	lambda_cid14_p0	lambda_cid14_p1	lambda_cid14_p2	lambda_cid14_p3	lambda_cid14_p4	lambda_cid14_p5	/jointset/ground_pelvis/pelvis_tilt/accel	/jointset/ground_pelvis/pelvis_tx/accel	/jointset/ground_pelvis/pelvis_ty/accel	/jointset/hip_r/hip_flexion_r/accel	/jointset/hip_r/hip_adduction_r/accel	/jointset/hip_r/hip_rotation_r/accel	/jointset/back/lumbar_extension/accel	/jointset/patellofemoral_r/patellar_flexion_r/accel	/jointset/knee_r/knee_flexion_r/accel	/jointset/knee_r/knee_adduction_r/accel	/jointset/knee_r/knee_rotation_r/accel	/jointset/ankle_r/ankle_angle_r/accel	/jointset/subtalar_r/subtalar_angle_r/accel	gamma_cid13_p0	gamma_cid14_p0	gamma_cid14_p1	gamma_cid14_p2	gamma_cid14_p3	gamma_cid14_p4	gamma_cid14_p5
0	-0.0007596093508536288	0.1282809627390697	0.9342983503208221	0.1934208783645156	-0.2169650836412685	-0.2483796530571028	-0.2903791543005566	0.2311793314021029	0.2311793314021609	0.1074162731747305	0.1731544474684085	0.08934340440958972	0.07789010573520681	0	0	0	0	0	0	0	0	0	0	0	0	0	0.1110307254946607	-0.04517817497577022	-0.0006603102381174357	-0.2311957993535574	0.08427342634921349	-0.06574645766595326	-0.03133482367184763	-29.86585784292859	-19.51429310848307	-26.70004157271233	-1.341478343731101	20.05240385130768	-623.3762396270367	51.19152796454643	-2.589234986415169	-2.230514632558964	-0.6907731220161076	9.289759292206135	0.05436304187284879	1.514655688315783	-6.405415501796134	6.647569804566153	6.647569804566786	-1.880757622550278	0.1628181402841617	0.3696620141153217	0.1564907608452826	1.461127972409069e-08	1.761012739707053e-08	-9.523697733151865e-08	7.920127660410233e-08	-3.298592901177576e-09	1.062194326518794e-07	-7.544705397525517e-08
0.01	-0.0008835030425171272	0.1281708637555148	0.9342648080574637	0.1938736631097843	-0.21696139245525	-0.248304274228886	-0.2906989689382011	0.2315042830084142	0.2315042830084889	0.1073222463383526	0.1731605176259615	0.08936074522542825	0.07789879725937857	-0.02467968869355082	-0.02190151039805705	-0.006683212967886388	0.09010257617785433	0.000726445123599147	0.01500791645680226	-0.06345251924104681	0.06463237397421735	0.06463237397421831	-0.01867873949731818	0.001192203452082134	0.003437108431939212	0.001715304263572603	0.1056437671435079	-0.05251195959177211	-0.0002747728216749649	-0.225787868784086	0.07621485922792946	-0.05698063878946003	-0.02654535215240925	-29.86940789446802	-21.6311158238808	-23.03221003296158	-2.190633356253244	20.22601159174409	-624.76597219135	58.30835226658554	-2.392479784607632	-2.152226953986026	-0.653288184846205	8.802351146341453	0.08001189405666563	1.483698962025349	-6.238608894164135	6.317376177204191	6.317376177203823	-1.842447374484007	0.09416331411696335	0.3260801749029957	0.1755943341075906	1.820449591458912e-08	1.075878150629834e-08	-1.00268734557273e-07	7.789621532733337e-08	4.561960657195942e-09	2.772786755722398e-08	-6.91348959830414e-08
0.02	-0.001251222415816994	0.1278452981258698	0.934165195104293	0.1952138424900084	-0.2169507914887407	-0.2480808483685678	-0.2916379965200214	0.2324648193511715	0.2324648193511846	0.1070452290548219	0.1731778581912691	0.08941152610902246	0.07792395064118347	-0.04876513633861281	-0.04309332921800029	-0.01321413796246229	0.1774789269863296	0.001381956105340001	0.02960940642014935	-0.1238425888384359	0.1271169472826118	0.1271169472826143	-0.03659808944110405	0.002254081562003426	0.006688013550683923	0.003292371526930394	0.100256808792285	-0.05984574420775526	0.0001107645945670664	-0.2203799382146238	0.06815629210664614	-0.04821481991293988	-0.02175588063301782	-29.87976174037979	-23.69646479431387	-19.36461569246063	-3.0291844667107	20.50187243466165	-625.2862985950871	65.25316327892368	-2.470386776718367	-2.088576316935407	-0.6603155273540539	8.744514218330266	0.04017621350125902	1.433370389624733	-5.792925573065252	6.218009671401325	6.218009671402074	-1.728879711843947	0.13675307185185	0.3324213514772478	0.1288433608026581	2.179771210508756e-08	3.907435615526148e-09	-1.053004917830274e-07	7.65911540505644e-08	1.242251421556946e-08	-5.076369753743145e-08	-6.282273799082763e-08
0.03	-0.001857149727112064	0.1273113799456004	0.9340007885145853	0.1974149104153484	-0.2169342218362393	-0.2477134747943647	-0.293166552592862	0.2340403042948019	0.2340403042948505	0.1065931507027412	0.1732054310098444	0.08949420062619393	0.07796399267702706	-0.07231617803758164	-0.06356901575784092	-0.01966061178759056	0.2623085222314934	0.001907661275941621	0.04380902562641162	-0.1814916044749574	0.1876925799464104	0.187692579946415	-0.05367569696935761	0.00324171723213757	0.0098498993365997	0.004687696701250742	0.09607301548633054	-0.05645675759984509	0.0002528500315903206	-0.2179306924690809	0.06722957307048304	-0.04918629980225098	-0.01801318688081561	-29.89650691486728	-24.01602982227002	-19.85953153650312	-2.930807922656201	19.74908256652575	-625.4043096181449	63.53532456494499	-2.281838018130266	-2.008868642515702	-0.6358385513649022	8.288263445095112	0.05511551196401777	1.404831884403296	-5.694336372567731	5.93421646437034	5.934216464370046	-1.675929749871062	0.07697000072680146	0.3085264495037215	0.1406188307115616	2.193477131785803e-08	-1.477456667274912e-09	-9.358602257569907e-08	6.760231252890393e-08	1.597337572178502e-08	-1.083502326154759e-07	-4.941513563999379e-08
